<svg width="120" height="162" viewBox="0 0 120 162" fill="none" xmlns="http://www.w3.org/2000/svg">
<rect width="120" height="162" fill="white"/>
<rect x="5" y="67" width="110" height="90" rx="5" stroke="black" stroke-width="10"/>
<path d="M20 45C20 39.7626 21.0544 34.5737 23.1058 29.7288C25.1574 24.8836 28.1674 20.4739 31.9696 16.7544C35.7719 13.0346 40.292 10.0783 45.2743 8.05944C50.2568 6.04047 55.6007 5 61 5C66.3993 5 71.7432 6.04047 76.7257 8.05943C81.708 10.0783 86.2281 13.0346 90.0304 16.7544C93.8326 20.4739 96.8426 24.8836 98.8942 29.7288C100.946 34.5737 102 39.7626 102 45" stroke="black" stroke-width="10"/>
<line x1="20" y1="45" x2="20" y2="62" stroke="black" stroke-width="10"/>
<line x1="102" y1="45" x2="102" y2="62" stroke="black" stroke-width="10"/>
<line x1="49.6989" y1="108.264" x2="57.9414" y2="124.92" stroke="black" stroke-width="10" stroke-linecap="round"/>
<line x1="58.1111" y1="125.186" x2="75.2564" y2="94.8889" stroke="black" stroke-width="10" stroke-linecap="round"/>
</svg>
