<svg width="120" height="162" viewBox="0 0 120 162" fill="none" xmlns="http://www.w3.org/2000/svg">
<rect width="120" height="162" fill="white"/>
<circle cx="62" cy="32" r="25" stroke="black" stroke-width="10"/>
<path d="M22 105C22 99.7471 23.0346 94.5457 25.0448 89.6927C27.055 84.8396 30.0014 80.4301 33.7157 76.7157C37.4301 73.0014 41.8396 70.055 46.6927 68.0448C51.5457 66.0346 56.7471 65 62 65C67.2529 65 72.4543 66.0346 77.3073 68.0448C82.1604 70.055 86.5699 73.0014 90.2843 76.7157C93.9986 80.4301 96.945 84.8396 98.9552 89.6927C100.965 94.5457 102 99.7471 102 105" stroke="black" stroke-width="10"/>
<line x1="22" y1="105" x2="22" y2="162" stroke="black" stroke-width="10"/>
<line x1="102" y1="105" x2="102" y2="162" stroke="black" stroke-width="10"/>
</svg>
